name rise30.3154peak39.0474fall46.5389.mot
datacolumns 19
datarows 12
range 5.34998600000000 5.36831200000000
endheader
time	ground_force1_vx	ground_force1_vy	ground_force1_vz	ground_force1_px	ground_force1_py	ground_force1_pz	ground_force2_vx	ground_force2_vy	ground_force2_vz	ground_force2_px	ground_force2_py	ground_force2_pz	ground_torque1_x	ground_torque1_y	ground_torque1_z	ground_torque2_x	ground_torque2_y	ground_torque2_z	
5.34998600000000	-43.35248200000000	806.66954499999997	56.64670200000000	0.10100300000000	0.00000000000000	0.11939200000000	0.00000000000000	0.00000000000000	0.00000000000000	0.00000000000000	0.00000000000000	0.00000000000000	0.00000000000000	21.87461800000000	0.00000000000000	0.00000000000000	0.00000000000000	0.00000000000000	
5.35165000000000	-43.59739300000000	804.12159599999995	56.50332000000000	0.10019000000000	0.00000000000000	0.11929200000000	0.00000000000000	0.00000000000000	0.00000000000000	0.00000000000000	0.00000000000000	0.00000000000000	0.00000000000000	21.79229600000000	0.00000000000000	0.00000000000000	0.00000000000000	0.00000000000000	
5.35331300000000	-43.85818300000000	801.47704699999997	56.34250000000000	0.09937300000000	0.00000000000000	0.11918700000000	0.00000000000000	0.00000000000000	0.00000000000000	0.00000000000000	0.00000000000000	0.00000000000000	0.00000000000000	21.71063600000000	0.00000000000000	0.00000000000000	0.00000000000000	0.00000000000000	
5.35498600000000	-44.13564700000000	798.73641299999997	56.16412100000000	0.09855100000000	0.00000000000000	0.11908000000000	0.00000000000000	0.00000000000000	0.00000000000000	0.00000000000000	0.00000000000000	0.00000000000000	0.00000000000000	21.62986000000000	0.00000000000000	0.00000000000000	0.00000000000000	0.00000000000000	
5.35665000000000	-44.43051200000000	795.90013399999998	55.96807900000000	0.09772400000000	0.00000000000000	0.11896800000000	0.00000000000000	0.00000000000000	0.00000000000000	0.00000000000000	0.00000000000000	0.00000000000000	0.00000000000000	21.55018000000000	0.00000000000000	0.00000000000000	0.00000000000000	0.00000000000000	
5.35831600000000	-44.74343200000000	792.96856600000001	55.75428600000000	0.09689400000000	0.00000000000000	0.11885400000000	-1.20048600000000	2.92279400000000	0.61437700000000	0.00000000000000	0.00000000000000	0.00000000000000	0.00000000000000	21.47179600000000	0.00000000000000	0.00000000000000	0.17535400000000	0.00000000000000	
5.35998100000000	-45.07498500000000	789.94197199999996	55.52267000000000	0.09605900000000	0.00000000000000	0.11873600000000	-1.88089500000000	6.43683100000000	1.06179400000000	0.00000000000000	0.00000000000000	0.00000000000000	0.00000000000000	21.39489700000000	0.00000000000000	0.00000000000000	0.31949200000000	0.00000000000000	
5.36164600000000	-45.42566500000000	786.82051899999999	55.27317600000000	0.09522200000000	0.00000000000000	0.11861400000000	-2.64150300000000	10.79316500000000	1.58408300000000	0.00000000000000	0.00000000000000	0.00000000000000	0.00000000000000	21.31965700000000	0.00000000000000	0.00000000000000	0.49070800000000	0.00000000000000	
5.36332000000000	-45.79588000000000	783.60427100000004	55.00576300000000	0.09438100000000	0.00000000000000	0.11848800000000	-3.45640500000000	15.97636700000000	2.17010700000000	0.00000000000000	0.00000000000000	0.00000000000000	0.00000000000000	21.24623500000000	0.00000000000000	0.00000000000000	0.68623400000000	0.00000000000000	
5.36498400000000	-46.18594800000000	780.29318400000000	54.72040200000000	0.09353900000000	0.00000000000000	0.11835900000000	-4.29390400000000	21.93730800000000	2.80461700000000	0.00000000000000	0.00000000000000	0.00000000000000	0.00000000000000	21.17477400000000	0.00000000000000	0.00000000000000	0.90195400000000	0.00000000000000	
5.36664800000000	-46.59609300000000	776.88710800000001	54.41708000000000	0.09269400000000	0.00000000000000	0.11822700000000	-5.11854800000000	28.59727400000000	3.46924500000000	0.26811000000000	0.00000000000000	-0.07484800000000	0.00000000000000	21.10540200000000	0.00000000000000	0.00000000000000	1.67970300000000	0.00000000000000	
5.36831200000000	-47.02643900000000	773.38577599999996	54.09579700000000	0.09184900000000	0.00000000000000	0.11809000000000	-5.89365100000000	35.85509300000000	4.14384800000000	0.27886600000000	0.00000000000000	-0.07537700000000	0.00000000000000	21.03822900000000	0.00000000000000	0.00000000000000	2.08386300000000	0.00000000000000	
